<?xml version="1.0" standalone="no"?>
<!DOCTYPE svg PUBLIC "-//W3C//DTD SVG 20010904//EN"
 "http://www.w3.org/TR/2001/REC-SVG-20010904/DTD/svg10.dtd">
<svg version="1.0" xmlns="http://www.w3.org/2000/svg"
 width="1700.000000pt" height="445.000000pt" viewBox="0 0 1700.000000 445.000000"
 preserveAspectRatio="xMidYMid meet">
<metadata>
Created by potrace 1.16, written by Peter Selinger 2001-2019
</metadata>
<g transform="translate(0.000000,445.000000) scale(0.100000,-0.100000)"
fill="#000000" stroke="none">
<path d="M5930 3984 c-260 -27 -469 -168 -575 -389 -101 -208 -100 -426 2
-635 39 -80 59 -108 132 -180 141 -140 292 -200 501 -200 123 0 225 22 317 68
66 34 182 118 190 138 5 14 -104 152 -121 153 -5 1 -32 -17 -60 -38 -108 -83
-209 -120 -326 -121 -132 0 -247 47 -340 140 -228 228 -188 615 82 790 82 53
164 73 280 68 82 -3 103 -8 168 -39 42 -20 102 -57 134 -84 l59 -48 68 74 c37
41 67 79 65 84 -6 22 -125 108 -201 146 -115 56 -260 84 -375 73z"/>
<path d="M7470 3980 c-241 -28 -440 -171 -551 -395 -47 -96 -69 -191 -69 -305
0 -119 22 -210 76 -320 38 -77 62 -110 128 -176 67 -66 99 -89 176 -127 276
-135 611 -89 818 113 138 134 211 310 212 508 1 370 -255 660 -617 702 -49 5
-92 9 -98 9 -5 -1 -39 -5 -75 -9z m239 -219 c198 -62 331 -254 331 -481 0
-285 -210 -500 -488 -500 -263 0 -482 227 -482 500 0 216 136 410 336 479 80
27 219 28 303 2z"/>
<path d="M8670 3297 l0 -697 110 0 110 0 2 421 3 422 445 -413 c245 -227 455
-422 468 -433 l22 -20 0 696 0 697 -110 0 -110 0 -2 -426 -3 -427 -415 388
c-228 213 -439 411 -467 438 l-53 51 0 -697z"/>
<path d="M14982 3980 c-278 -38 -514 -247 -588 -521 -24 -87 -24 -271 0 -359
65 -242 250 -428 496 -496 99 -28 328 -26 432 4 154 44 268 111 328 194 l30
41 0 239 0 238 -280 0 -280 0 0 -100 0 -100 170 0 170 0 0 -105 c0 -101 -1
-105 -27 -130 -89 -83 -300 -126 -455 -94 -129 27 -265 133 -326 255 -140 280
-2 625 287 714 86 27 217 27 302 0 93 -29 220 -133 268 -218 7 -13 20 -8 77
32 118 81 110 68 76 118 -48 70 -161 170 -238 210 -127 67 -299 97 -442 78z"/>
<path d="M10170 3963 c0 -13 634 -1483 640 -1483 3 0 147 332 319 738 173 405
316 741 318 745 3 4 -50 6 -118 5 l-122 -3 -196 -467 c-108 -256 -198 -465
-202 -463 -3 2 -95 213 -204 470 l-198 465 -118 0 c-66 0 -119 -3 -119 -7z"/>
<path d="M11780 3285 l0 -685 440 0 440 0 0 100 0 100 -330 0 -330 0 0 200 0
200 310 0 310 0 0 100 0 100 -310 0 -310 0 0 185 0 185 330 0 330 0 0 100 0
100 -440 0 -440 0 0 -685z"/>
<path d="M13060 3285 l0 -685 110 0 110 0 0 240 0 241 121 -3 122 -3 150 -237
149 -238 134 0 134 0 -78 123 c-43 67 -116 180 -161 250 -46 71 -81 130 -79
131 1 2 27 16 57 32 162 86 248 317 195 519 -42 164 -174 279 -349 305 -38 5
-193 10 -342 10 l-273 0 0 -685z m630 463 c47 -20 106 -88 119 -135 34 -122
-18 -272 -108 -311 -27 -12 -84 -17 -228 -20 l-193 -4 0 247 0 247 188 -4
c139 -3 196 -8 222 -20z"/>
<path d="M16130 3285 l0 -685 435 0 435 0 0 100 0 100 -325 0 -325 0 0 200 0
200 310 0 310 0 0 100 0 100 -310 0 -310 0 0 185 0 185 325 0 325 0 0 100 0
100 -435 0 -435 0 0 -685z"/>
<path d="M2755 2190 l-39 -40 204 -205 205 -205 40 40 40 40 -205 205 -206
205 -39 -40z"/>
<path d="M5628 1851 c-74 -24 -116 -51 -168 -107 -66 -72 -110 -189 -110 -296
l0 -28 115 0 115 0 0 52 c0 136 111 221 254 194 73 -14 135 -98 136 -182 0
-74 -59 -166 -375 -584 -167 -223 -305 -408 -305 -412 0 -5 209 -8 465 -8
l465 0 0 100 0 100 -254 0 -255 0 189 251 c237 316 289 414 290 554 0 112 -57
241 -132 299 -19 14 -61 37 -93 53 -80 36 -248 44 -337 14z"/>
<path d="M9332 1850 c-116 -31 -226 -93 -313 -180 -137 -136 -199 -277 -207
-472 -5 -143 13 -235 68 -346 125 -247 352 -382 641 -382 241 0 453 81 558
214 l31 39 0 243 0 244 -280 0 -280 0 0 -100 0 -100 170 0 170 0 0 -108 c0
-100 -2 -110 -22 -128 -76 -67 -162 -95 -313 -101 -105 -5 -128 -3 -185 17
-296 99 -426 432 -281 718 101 197 319 298 543 251 103 -22 209 -93 274 -184
21 -30 43 -54 47 -55 13 0 167 110 167 120 0 15 -76 104 -139 162 -73 68 -197
132 -297 153 -98 21 -262 18 -352 -5z"/>
<path d="M6670 1165 l0 -688 293 5 c266 5 298 7 362 28 291 92 468 322 482
625 15 325 -155 583 -452 682 -78 27 -86 27 -382 31 l-303 4 0 -687z m599 466
c82 -26 138 -60 194 -120 175 -187 168 -511 -14 -694 -104 -104 -209 -136
-446 -137 l-113 0 0 485 0 485 159 0 c128 0 171 -4 220 -19z"/>
<path d="M8190 1165 l0 -685 110 0 110 0 0 685 0 685 -110 0 -110 0 0 -685z"/>
<path d="M10560 1165 l0 -685 110 0 110 0 0 685 0 685 -110 0 -110 0 0 -685z"/>
<path d="M11140 1750 l0 -100 170 0 170 0 0 -585 0 -585 110 0 110 0 0 585 0
585 170 0 170 0 0 100 0 100 -450 0 -450 0 0 -100z"/>
<path d="M12917 1843 c-17 -29 -627 -1345 -627 -1353 0 -6 44 -10 118 -10
l117 0 150 323 c82 177 172 370 200 430 l50 108 200 -431 200 -430 118 0 c100
0 118 2 115 15 -6 28 -623 1355 -630 1355 -4 0 -9 -3 -11 -7z"/>
<path d="M13900 1165 l0 -685 395 0 395 0 0 100 0 100 -285 0 -285 0 0 585 0
585 -110 0 -110 0 0 -685z"/>
</g>
</svg>
